# Object Export From Tinkercad Server 2015

mtllib obj.mtl

o obj_0
v 1.353 		1.17 		2.69
v 1.317 		1.224 		2.69
v 1.034 		1.822 		0
v 1.152 		1.799 		0
v 1.265 		1.76 		0
v 1.373 		1.707 		0
v 1.472 		1.641 		0
v 1.274 		1.274 		2.69
v 1.562 		1.562 		0
v 1.641 		1.472 		0
v 0.123 		0.458 		0.41
v 0.112 		0.814 		0.41
v 0.105 		0.92 		0.41
v 1.664 		0.822 		1.11
v 1.67 		0.92 		1.11
v 1.224 		1.317 		2.69
v 1.328 		0.214 		1.11
v 0.189 		0.358 		0.41
v 0.133 		0.709 		0.41
v 1.114 		0.196 		1.11
v 1.707 		1.373 		0
v 1.76 		1.265 		0
v 1.799 		1.152 		0
v 1.822 		1.034 		0
v 0.268 		0.268 		0.41
v 0.167 		0.608 		0.41
v 1.416 		0.273 		1.11
v 1.207 		0.227 		1.11
v 1.664 		1.018 		1.11
v 0.855 		1.416 		2.69
v 0.92 		1.42 		2.69
v 0.358 		0.189 		0.41
v 0.214 		0.513 		0.41
v 1.496 		0.344 		1.11
v 1.295 		0.27 		1.11
v 0.791 		1.403 		2.69
v 0.458 		0.123 		0.41
v 0.273 		0.424 		0.41
v 0.729 		1.382 		2.69
v 0.344 		0.344 		0.41
v 1.17 		1.353 		2.69
v 0.424 		0.273 		0.41
v 0.008 		1.034 		0
v 0.031 		1.152 		0
v 0.07 		1.265 		0
v 0.123 		1.373 		0
v 0.189 		1.472 		0
v 0.268 		1.562 		0
v 0.358 		1.641 		0
v 0.458 		1.707 		0
v 0.565 		1.76 		0
v 0.678 		1.799 		0
v 0.796 		1.822 		0
v 0.513 		0.214 		0.41
v 1.111 		1.382 		2.69
v 0.67 		1.353 		2.69
v 0.608 		0.167 		0.41
v 1.049 		1.403 		2.69
v 0.616 		1.317 		2.69
v 0.709 		0.133 		0.41
v 0.566 		1.274 		2.69
v 0.814 		0.112 		0.41
v 0.523 		1.224 		2.69
v 0.92 		0.105 		0.41
v 0.985 		1.416 		2.69
v 1.822 		1.034 		0.41
v 0.487 		1.17 		2.69
v 1.799 		1.152 		0.41
v 1.76 		1.265 		0.41
v 0.458 		1.111 		2.69
v 1.707 		1.373 		0.41
v 1.641 		1.472 		0.41
v 0.437 		1.049 		2.69
v 1.562 		1.562 		0.41
v 1.472 		1.641 		0.41
v 1.373 		1.707 		0.41
v 1.207 		0.227 		2.69
v 1.295 		0.27 		2.69
v 1.377 		0.325 		2.69
v 1.265 		1.76 		0.41
v 1.45 		0.39 		2.69
v 1.114 		0.196 		2.69
v 1.152 		1.799 		0.41
v 1.034 		1.822 		0.41
v 0.915 		1.83 		0
v 0.915 		1.83 		0.41
v 1.67 		0.92 		2.69
v 1.664 		1.018 		2.69
v 1.42 		0.92 		2.69
v 1.567 		0.424 		1.11
v 1.377 		0.325 		1.11
v 1.515 		0.463 		2.69
v 1.626 		0.513 		1.11
v 0.796 		1.822 		0.41
v 1.57 		0.545 		2.69
v 1.613 		0.633 		2.69
v 1.45 		0.39 		1.11
v 1.644 		0.726 		2.69
v 1.664 		0.822 		2.69
v 0.678 		1.799 		0.41
v 0.565 		1.76 		0.41
v 1.515 		0.463 		1.11
v 1.049 		0.437 		2.69
v 1.57 		0.545 		1.11
v 1.111 		0.458 		2.69
v 1.613 		0.633 		1.11
v 1.17 		0.487 		2.69
v 0.458 		1.707 		0.41
v 1.644 		0.726 		1.11
v 1.224 		0.523 		2.69
v 1.274 		0.566 		2.69
v 0.358 		1.641 		0.41
v 1.317 		0.616 		2.69
v 0.227 		1.207 		2.69
v 0.27 		1.295 		2.69
v 1.353 		0.67 		2.69
v 0.268 		1.562 		0.41
v 0.196 		1.114 		2.69
v 0.189 		1.472 		0.41
v 1.382 		0.729 		2.69
v 0.123 		1.373 		0.41
v 1.403 		0.791 		2.69
v 0.07 		1.265 		0.41
v 0.105 		0.92 		1.11
v 0.031 		1.152 		0.41
v 1.416 		0.855 		2.69
v 0.008 		1.034 		0.41
v 1.83 		0.915 		0
v 1.822 		0.796 		0
v 1.799 		0.678 		0
v 1.76 		0.565 		0
v 1.707 		0.458 		0
v 1.641 		0.358 		0
v 1.562 		0.268 		0
v 1.034 		0.008 		0
v 1.472 		0.189 		0
v 1.034 		0.008 		0.41
v 1.373 		0.123 		0
v 1.265 		0.07 		0
v 1.416 		0.985 		2.69
v 1.152 		0.031 		0
v 1.152 		0.031 		0.41
v 1.265 		0.07 		0.41
v 1.373 		0.123 		0.41
v 1.472 		0.189 		0.41
v 0.176 		1.018 		1.11
v 1.562 		0.268 		0.41
v 0.176 		1.018 		2.69
v 0.17 		0.92 		2.69
v 0.176 		0.822 		2.69
v 0.196 		0.726 		2.69
v 0.227 		0.633 		2.69
v 0.27 		0.545 		2.69
v 0.42 		0.92 		2.69
v 0.17 		0.92 		1.11
v 1.641 		0.358 		0.41
v 1.707 		0.458 		0.41
v 0.424 		0.985 		2.69
v 0.176 		0.822 		1.11
v 1.76 		0.565 		0.41
v 0.196 		0.726 		1.11
v 1.799 		0.678 		0.41
v 0.227 		0.633 		1.11
v 1.822 		0.796 		0.41
v 0.424 		0.855 		2.69
v 1.83 		0.915 		0.41
v 0.27 		0.545 		1.11
v 0.437 		0.791 		2.69
v 0.915 		0 		0.41
v 0.915 		0 		0
v 0.458 		0.729 		2.69
v 0.92 		0.17 		1.11
v 0 		0.915 		0
v 1.018 		0.176 		1.11
v 0 		0.915 		0.41
v 0.487 		0.67 		2.69
v 0.008 		0.796 		0
v 0.008 		0.796 		0.41
v 0.031 		0.678 		0
v 0.031 		0.678 		0.41
v 0.523 		0.616 		2.69
v 0.07 		0.565 		0
v 0.07 		0.565 		0.41
v 0.325 		0.463 		1.11
v 0.123 		0.458 		0
v 0.566 		0.566 		2.69
v 0.39 		0.39 		1.11
v 0.189 		0.358 		0
v 0.616 		0.523 		2.69
v 0.268 		0.268 		0
v 0.463 		0.325 		1.11
v 0.358 		0.189 		0
v 0.545 		0.27 		1.11
v 0.458 		0.123 		0
v 0.112 		0.814 		1.11
v 0.133 		0.709 		1.11
v 0.633 		0.227 		1.11
v 0.167 		0.608 		1.11
v 0.325 		0.463 		2.69
v 0.39 		0.39 		2.69
v 0.726 		0.196 		1.11
v 0.92 		0.17 		2.69
v 1.018 		0.176 		2.69
v 0.814 		0.112 		1.11
v 0.92 		0.105 		1.11
v 0.822 		0.176 		1.11
v 0.822 		0.176 		2.69
v 0.608 		0.167 		1.11
v 0.709 		0.133 		1.11
v 0.92 		0.42 		2.69
v 0.463 		0.325 		2.69
v 0.545 		0.27 		2.69
v 0.633 		0.227 		2.69
v 0.726 		0.196 		2.69
v 1.673 		0.608 		0.41
v 1.707 		0.709 		0.41
v 1.728 		1.026 		1.11
v 1.707 		0.709 		1.11
v 1.707 		1.131 		1.11
v 1.673 		1.232 		1.11
v 1.673 		0.608 		1.11
v 0.985 		0.424 		2.69
v 1.728 		0.814 		0.41
v 1.728 		0.814 		1.11
v 1.735 		0.92 		0.41
v 1.735 		0.92 		1.11
v 1.131 		1.707 		1.11
v 1.026 		1.728 		1.11
v 0.796 		0.008 		0
v 0.678 		0.031 		0
v 0.565 		0.07 		0
v 1.232 		1.673 		1.11
v 0.67 		0.487 		2.69
v 1.626 		1.328 		1.11
v 1.644 		1.114 		1.11
v 1.111 		1.382 		3.1
v 1.049 		1.403 		3.1
v 1.403 		1.049 		3.1
v 1.382 		1.111 		3.1
v 0.729 		0.458 		2.69
v 1.353 		1.17 		3.1
v 1.317 		1.224 		3.1
v 1.274 		1.274 		3.1
v 1.224 		1.317 		3.1
v 1.17 		1.353 		3.1
v 1.567 		1.416 		1.11
v 1.613 		1.207 		1.11
v 0.791 		0.437 		2.69
v 1.496 		1.496 		1.11
v 1.57 		1.295 		1.11
v 0.855 		0.424 		2.69
v 0.92 		1.42 		3.1
v 0.214 		0.513 		1.11
v 1.416 		1.567 		1.11
v 0.855 		1.416 		3.1
v 0.791 		1.403 		3.1
v 1.515 		1.377 		1.11
v 0.729 		1.382 		3.1
v 0.67 		1.353 		3.1
v 0.616 		1.317 		3.1
v 0.566 		1.274 		3.1
v 0.523 		1.224 		3.1
v 0.487 		1.17 		3.1
v 0.458 		1.111 		3.1
v 0.437 		1.049 		3.1
v 1.644 		1.114 		2.69
v 0.273 		0.424 		1.11
v 1.328 		1.626 		1.11
v 0.985 		1.416 		3.1
v 1.45 		1.45 		1.11
v 0.344 		0.344 		1.11
v 1.613 		1.207 		2.69
v 1.377 		1.515 		1.11
v 0.424 		0.273 		1.11
v 1.57 		1.295 		2.69
v 1.42 		0.92 		3.1
v 1.295 		1.57 		1.11
v 1.416 		0.985 		3.1
v 0.513 		0.214 		1.11
v 1.515 		1.377 		2.69
v 1.207 		1.613 		1.11
v 1.45 		1.45 		2.69
v 0.565 		0.07 		0.41
v 1.377 		1.515 		2.69
v 0.678 		0.031 		0.41
v 1.295 		1.57 		2.69
v 0.796 		0.008 		0.41
v 1.207 		1.613 		2.69
v 1.114 		1.644 		2.69
v 1.114 		1.644 		1.11
v 1.018 		1.664 		2.69
v 0.167 		1.232 		1.11
v 0.133 		1.131 		1.11
v 0.112 		1.026 		1.11
v 1.728 		1.026 		0.41
v 0.92 		1.67 		2.69
v 1.707 		1.131 		0.41
v 0.822 		1.664 		2.69
v 0.92 		1.735 		1.11
v 0.814 		1.728 		1.11
v 0.709 		1.707 		1.11
v 0.608 		1.673 		1.11
v 1.673 		1.232 		0.41
v 0.726 		1.644 		2.69
v 0.92 		1.67 		1.11
v 1.626 		1.328 		0.41
v 0.633 		1.613 		2.69
v 1.018 		1.664 		1.11
v 1.567 		1.416 		0.41
v 0.545 		1.57 		2.69
v 1.496 		1.496 		0.41
v 0.463 		1.515 		2.69
v 0.822 		1.664 		1.11
v 1.416 		1.567 		0.41
v 0.39 		1.45 		2.69
v 0.513 		1.626 		1.11
v 1.328 		1.626 		0.41
v 0.726 		1.644 		1.11
v 1.049 		0.437 		3.1
v 1.111 		0.458 		3.1
v 0.325 		1.377 		2.69
v 1.17 		0.487 		3.1
v 1.224 		0.523 		3.1
v 1.274 		0.566 		3.1
v 1.232 		1.673 		0.41
v 1.317 		0.616 		3.1
v 1.353 		0.67 		3.1
v 1.382 		0.729 		3.1
v 1.403 		0.791 		3.1
v 0.424 		1.567 		1.11
v 1.416 		0.855 		3.1
v 0.633 		1.613 		1.11
v 1.131 		1.707 		0.41
v 0.344 		1.496 		1.11
v 0.545 		1.57 		1.11
v 1.026 		1.728 		0.41
v 0.42 		0.92 		3.1
v 0.424 		0.855 		3.1
v 0.437 		0.791 		3.1
v 0.458 		0.729 		3.1
v 0.487 		0.67 		3.1
v 0.273 		1.416 		1.11
v 0.523 		0.616 		3.1
v 0.463 		1.515 		1.11
v 0.214 		1.328 		1.11
v 0.39 		1.45 		1.11
v 0.325 		1.377 		1.11
v 0.92 		1.735 		0.41
v 0.27 		1.295 		1.11
v 0.227 		1.207 		1.11
v 0.196 		1.114 		1.11
v 0.814 		1.728 		0.41
v 0.709 		1.707 		0.41
v 0.608 		1.673 		0.41
v 1.026 		0.112 		1.11
v 1.131 		0.133 		1.11
v 1.232 		0.167 		1.11
v 0.513 		1.626 		0.41
v 0.424 		1.567 		0.41
v 0.344 		1.496 		0.41
v 0.273 		1.416 		0.41
v 0.214 		1.328 		0.41
v 0.167 		1.232 		0.41
v 0.133 		1.131 		0.41
v 0.112 		1.026 		0.41
v 0.566 		0.566 		3.1
v 0.616 		0.523 		3.1
v 0.424 		0.985 		3.1
v 0.855 		0.424 		3.1
v 0.92 		0.42 		3.1
v 0.985 		0.424 		3.1
v 0.67 		0.487 		3.1
v 0.729 		0.458 		3.1
v 0.791 		0.437 		3.1
v 1.403 		1.049 		2.69
v 1.382 		1.111 		2.69
v 1.026 		0.112 		0.41
v 1.131 		0.133 		0.41
v 1.232 		0.167 		0.41
v 1.328 		0.214 		0.41
v 1.416 		0.273 		0.41
v 1.496 		0.344 		0.41
v 1.567 		0.424 		0.41
v 1.626 		0.513 		0.41
# 384 vertices

g group_0_16089887

usemtl color_16089887
s 0

f 2 	8 	243
f 11 	33 	183
f 13 	175 	12
f 18 	38 	11
f 12 	178 	19
f 5 	135 	4
f 6 	135 	5
f 7 	135 	6
f 9 	135 	7
f 10 	135 	9
f 21 	135 	10
f 22 	135 	21
f 23 	135 	22
f 24 	135 	23
f 25 	38 	18
f 19 	180 	26
f 27 	35 	17
f 20 	174 	356
f 31 	296 	30
f 32 	42 	25
f 26 	183 	33
f 34 	91 	27
f 28 	357 	35
f 37 	42 	32
f 33 	11 	38
f 8 	16 	243
f 36 	304 	39
f 38 	25 	40
f 40 	25 	42
f 42 	37 	54
f 39 	307 	56
f 56 	310 	59
f 59 	312 	61
f 315 	321 	61
f 115 	114 	67
f 63 	115 	67
f 24 	23 	68
f 24 	68 	66
f 252 	65 	31
f 23 	22 	69
f 23 	69 	68
f 30 	255 	31
f 252 	31 	255
f 22 	21 	71
f 22 	71 	69
f 21 	10 	72
f 21 	72 	71
f 30 	36 	255
f 70 	67 	114
f 114 	118 	70
f 10 	9 	74
f 10 	74 	72
f 258 	36 	39
f 9 	7 	75
f 9 	75 	74
f 7 	6 	76
f 7 	76 	75
f 39 	56 	259
f 39 	259 	258
f 80 	76 	5
f 6 	5 	76
f 56 	59 	259
f 81 	111 	79
f 79 	110 	78
f 78 	107 	77
f 5 	4 	83
f 5 	83 	80
f 4 	3 	84
f 4 	84 	83
f 59 	61 	261
f 86 	84 	85
f 3 	85 	84
f 61 	63 	261
f 90 	102 	34
f 35 	27 	91
f 85 	53 	94
f 85 	94 	86
f 87 	88 	140
f 89 	126 	87
f 116 	113 	95
f 92 	95 	113
f 113 	111 	92
f 95 	96 	116
f 96 	98 	120
f 126 	122 	98
f 98 	99 	126
f 87 	126 	99
f 91 	34 	97
f 93 	104 	90
f 53 	52 	100
f 53 	100 	94
f 70 	73 	265
f 97 	34 	102
f 102 	90 	104
f 103 	82 	105
f 52 	51 	101
f 52 	101 	100
f 93 	221 	104
f 106 	104 	221
f 105 	77 	107
f 81 	92 	111
f 51 	50 	108
f 51 	108 	101
f 107 	78 	110
f 110 	79 	111
f 50 	49 	112
f 50 	112 	108
f 226 	217 	29
f 15 	226 	29
f 49 	48 	117
f 49 	117 	112
f 114 	351 	118
f 48 	47 	119
f 48 	119 	117
f 351 	146 	118
f 47 	46 	121
f 47 	121 	119
f 120 	116 	96
f 46 	45 	123
f 46 	123 	121
f 44 	45 	43
f 43 	45 	46
f 43 	46 	47
f 43 	47 	48
f 43 	48 	49
f 43 	49 	50
f 43 	50 	51
f 43 	51 	52
f 43 	52 	53
f 43 	53 	85
f 43 	85 	3
f 45 	44 	125
f 45 	125 	123
f 122 	120 	98
f 44 	43 	127
f 44 	127 	125
f 175 	127 	43
f 201 	214 	213
f 89 	87 	140
f 135 	141 	142
f 135 	142 	137
f 141 	139 	143
f 141 	143 	142
f 214 	201 	206
f 91 	79 	78
f 139 	138 	144
f 139 	144 	143
f 97 	81 	79
f 97 	79 	91
f 138 	136 	145
f 138 	145 	144
f 136 	134 	147
f 136 	147 	145
f 81 	97 	92
f 102 	92 	97
f 165 	154 	149
f 149 	150 	165
f 151 	165 	150
f 152 	171 	151
f 153 	176 	152
f 134 	133 	156
f 134 	156 	147
f 95 	92 	102
f 133 	132 	157
f 133 	157 	156
f 150 	155 	159
f 158 	73 	118
f 132 	131 	160
f 132 	160 	157
f 150 	159 	161
f 131 	130 	162
f 131 	162 	160
f 130 	129 	164
f 130 	164 	162
f 154 	158 	149
f 14 	99 	98
f 129 	128 	166
f 129 	166 	164
f 165 	151 	168
f 128 	24 	166
f 66 	166 	24
f 99 	14 	87
f 15 	87 	14
f 169 	170 	135
f 169 	135 	137
f 186 	181 	199
f 168 	151 	171
f 29 	88 	87
f 29 	87 	15
f 43 	173 	175
f 175 	173 	177
f 175 	177 	178
f 171 	152 	176
f 29 	266 	88
f 177 	179 	180
f 177 	180 	178
f 176 	153 	181
f 146 	148 	118
f 179 	182 	183
f 179 	183 	180
f 146 	155 	149
f 146 	149 	148
f 11 	183 	185
f 182 	185 	183
f 153 	199 	181
f 18 	11 	188
f 185 	188 	11
f 149 	155 	150
f 150 	161 	151
f 211 	187 	191
f 25 	18 	190
f 188 	190 	18
f 161 	163 	152
f 161 	152 	151
f 192 	32 	25
f 192 	25 	190
f 191 	193 	211
f 153 	152 	167
f 163 	167 	152
f 213 	193 	197
f 196 	159 	195
f 198 	163 	196
f 195 	159 	124
f 200 	211 	186
f 197 	201 	213
f 202 	172 	174
f 202 	174 	203
f 82 	203 	174
f 355 	174 	205
f 172 	206 	205
f 204 	205 	206
f 201 	197 	209
f 199 	153 	184
f 167 	184 	153
f 103 	222 	82
f 203 	222 	202
f 77 	105 	82
f 210 	251 	202
f 207 	202 	251
f 212 	213 	233
f 240 	233 	213
f 214 	240 	213
f 207 	251 	214
f 215 	216 	218
f 215 	218 	221
f 24 	128 	129
f 24 	129 	130
f 24 	130 	131
f 24 	131 	132
f 24 	132 	133
f 24 	133 	134
f 24 	134 	136
f 24 	136 	138
f 24 	138 	139
f 24 	139 	141
f 24 	141 	135
f 3 	4 	135
f 220 	247 	219
f 203 	82 	222
f 210 	202 	222
f 216 	223 	224
f 216 	224 	218
f 223 	225 	226
f 223 	226 	224
f 217 	226 	225
f 228 	308 	227
f 231 	3 	230
f 194 	3 	231
f 229 	230 	3
f 192 	3 	194
f 190 	3 	192
f 188 	3 	190
f 185 	3 	188
f 182 	3 	185
f 179 	3 	182
f 177 	3 	179
f 173 	3 	177
f 43 	3 	173
f 170 	229 	3
f 170 	3 	135
f 205 	64 	355
f 211 	212 	189
f 199 	200 	186
f 189 	186 	211
f 234 	250 	220
f 124 	13 	12
f 124 	12 	195
f 233 	189 	212
f 240 	214 	248
f 237 	264 	236
f 239 	241 	264
f 241 	242 	264
f 242 	243 	264
f 243 	244 	264
f 244 	245 	264
f 236 	264 	245
f 246 	250 	234
f 235 	219 	247
f 12 	19 	196
f 12 	196 	195
f 19 	26 	198
f 19 	198 	196
f 270 	257 	249
f 247 	220 	250
f 248 	214 	251
f 26 	33 	253
f 26 	253 	198
f 254 	273 	249
f 250 	246 	257
f 256 	237 	255
f 258 	237 	256
f 259 	237 	258
f 260 	237 	259
f 261 	237 	260
f 262 	237 	261
f 263 	237 	262
f 264 	237 	263
f 265 	239 	264
f 252 	255 	237
f 252 	237 	269
f 33 	38 	267
f 33 	267 	253
f 246 	249 	257
f 268 	277 	254
f 38 	40 	271
f 38 	271 	267
f 270 	249 	273
f 281 	277 	232
f 227 	281 	232
f 40 	42 	274
f 40 	274 	271
f 273 	254 	277
f 257 	280 	275
f 42 	54 	279
f 42 	279 	274
f 184 	187 	200
f 184 	200 	199
f 282 	280 	257
f 194 	37 	32
f 194 	32 	192
f 200 	187 	211
f 54 	57 	208
f 54 	208 	279
f 57 	60 	209
f 57 	209 	208
f 193 	212 	211
f 231 	283 	37
f 231 	37 	194
f 230 	285 	283
f 230 	283 	231
f 60 	62 	204
f 60 	204 	209
f 213 	212 	193
f 229 	287 	285
f 229 	285 	230
f 62 	64 	205
f 62 	205 	204
f 170 	169 	287
f 170 	287 	229
f 268 	232 	277
f 69 	297 	68
f 71 	303 	69
f 206 	207 	214
f 281 	227 	290
f 207 	206 	202
f 172 	202 	206
f 235 	266 	29
f 72 	306 	71
f 225 	66 	295
f 66 	68 	295
f 291 	305 	296
f 272 	266 	247
f 235 	247 	266
f 124 	146 	294
f 293 	294 	146
f 74 	309 	72
f 295 	68 	297
f 275 	272 	250
f 247 	250 	272
f 296 	305 	298
f 75 	314 	74
f 297 	69 	303
f 250 	257 	275
f 301 	313 	300
f 302 	332 	301
f 300 	313 	299
f 305 	308 	299
f 303 	71 	306
f 282 	257 	270
f 290 	227 	308
f 228 	299 	308
f 270 	273 	284
f 270 	284 	282
f 76 	317 	75
f 306 	72 	309
f 286 	284 	277
f 273 	277 	284
f 310 	344 	312
f 309 	74 	311
f 80 	325 	76
f 305 	299 	313
f 311 	74 	314
f 344 	346 	312
f 315 	312 	346
f 314 	75 	317
f 83 	333 	80
f 316 	335 	302
f 313 	301 	318
f 346 	321 	315
f 317 	76 	325
f 239 	265 	238
f 278 	238 	368
f 319 	320 	276
f 276 	320 	322
f 276 	322 	323
f 276 	323 	324
f 276 	324 	326
f 276 	326 	327
f 276 	327 	328
f 276 	328 	329
f 276 	329 	331
f 330 	335 	316
f 318 	301 	332
f 325 	80 	333
f 334 	344 	330
f 332 	302 	335
f 277 	281 	288
f 277 	288 	286
f 84 	348 	336
f 333 	83 	336
f 83 	84 	336
f 289 	288 	290
f 281 	290 	288
f 342 	347 	334
f 335 	330 	344
f 107 	110 	323
f 291 	289 	290
f 344 	334 	346
f 345 	349 	342
f 324 	323 	111
f 110 	111 	323
f 127 	365 	125
f 362 	121 	363
f 125 	364 	123
f 290 	308 	291
f 346 	334 	347
f 350 	349 	292
f 111 	113 	326
f 111 	326 	324
f 101 	354 	100
f 100 	353 	94
f 108 	358 	101
f 94 	352 	86
f 86 	348 	84
f 347 	342 	349
f 308 	305 	291
f 327 	326 	116
f 113 	116 	326
f 345 	292 	349
f 305 	313 	298
f 116 	120 	328
f 116 	328 	327
f 112 	359 	108
f 348 	86 	352
f 292 	293 	350
f 313 	318 	304
f 313 	304 	298
f 329 	328 	122
f 120 	122 	328
f 117 	360 	112
f 352 	94 	353
f 307 	304 	332
f 318 	332 	304
f 351 	350 	293
f 146 	351 	293
f 122 	126 	331
f 122 	331 	329
f 119 	361 	117
f 353 	100 	354
f 332 	335 	310
f 332 	310 	307
f 17 	35 	357
f 356 	357 	28
f 28 	20 	356
f 121 	362 	119
f 354 	101 	358
f 276 	331 	89
f 126 	89 	331
f 335 	344 	310
f 123 	363 	121
f 358 	108 	359
f 276 	89 	140
f 235 	29 	219
f 217 	219 	29
f 226 	15 	14
f 109 	106 	218
f 14 	109 	218
f 218 	106 	221
f 218 	224 	14
f 226 	14 	224
f 359 	112 	360
f 361 	119 	362
f 321 	346 	347
f 360 	117 	361
f 155 	146 	124
f 347 	349 	115
f 347 	115 	321
f 114 	115 	350
f 349 	350 	115
f 253 	167 	198
f 155 	124 	159
f 363 	123 	364
f 350 	351 	114
f 154 	165 	338
f 159 	196 	161
f 364 	125 	365
f 165 	168 	338
f 161 	196 	163
f 163 	198 	167
f 127 	13 	365
f 168 	171 	340
f 82 	174 	20
f 143 	378 	142
f 144 	379 	143
f 171 	176 	340
f 77 	82 	28
f 20 	28 	82
f 172 	205 	174
f 78 	77 	35
f 28 	35 	77
f 225 	166 	66
f 225 	223 	166
f 160 	162 	215
f 216 	215 	162
f 164 	216 	162
f 355 	356 	174
f 35 	91 	78
f 181 	186 	366
f 339 	276 	338
f 340 	276 	339
f 341 	276 	340
f 343 	276 	341
f 366 	276 	343
f 367 	276 	366
f 372 	276 	367
f 337 	338 	276
f 276 	278 	368
f 368 	238 	265
f 337 	276 	368
f 189 	367 	366
f 189 	366 	186
f 279 	193 	274
f 274 	191 	271
f 253 	267 	167
f 184 	167 	267
f 271 	184 	267
f 319 	276 	371
f 370 	371 	276
f 369 	370 	276
f 372 	373 	276
f 374 	276 	373
f 369 	276 	374
f 208 	193 	279
f 184 	271 	187
f 95 	102 	104
f 370 	210 	222
f 187 	271 	191
f 104 	106 	96
f 104 	96 	95
f 371 	222 	103
f 191 	274 	193
f 193 	208 	197
f 98 	96 	109
f 106 	109 	96
f 189 	233 	372
f 1 	241 	239
f 109 	14 	98
f 373 	372 	240
f 233 	240 	372
f 241 	1 	242
f 2 	242 	1
f 208 	209 	197
f 204 	206 	209
f 243 	242 	2
f 240 	248 	374
f 240 	374 	373
f 201 	209 	206
f 243 	16 	244
f 248 	251 	374
f 245 	244 	41
f 16 	41 	244
f 225 	295 	217
f 370 	251 	210
f 295 	297 	219
f 295 	219 	217
f 41 	55 	236
f 41 	236 	245
f 297 	303 	220
f 297 	220 	219
f 237 	236 	58
f 55 	58 	236
f 282 	8 	280
f 280 	2 	275
f 275 	1 	272
f 272 	376 	266
f 234 	220 	306
f 303 	306 	220
f 246 	234 	309
f 306 	309 	234
f 269 	237 	65
f 58 	65 	237
f 249 	246 	311
f 309 	311 	246
f 65 	252 	269
f 291 	65 	289
f 16 	286 	41
f 2 	280 	8
f 8 	284 	16
f 1 	275 	2
f 284 	8 	282
f 286 	16 	284
f 288 	41 	286
f 289 	55 	288
f 254 	249 	314
f 311 	314 	249
f 268 	254 	317
f 314 	317 	254
f 140 	266 	375
f 88 	266 	140
f 255 	36 	256
f 317 	325 	232
f 317 	232 	268
f 375 	266 	376
f 36 	258 	256
f 325 	333 	227
f 325 	227 	232
f 376 	272 	1
f 333 	336 	228
f 333 	228 	227
f 336 	348 	228
f 259 	59 	260
f 348 	299 	228
f 59 	261 	260
f 348 	352 	300
f 348 	300 	299
f 261 	63 	262
f 41 	288 	55
f 352 	353 	301
f 352 	301 	300
f 263 	262 	67
f 63 	67 	262
f 353 	354 	302
f 353 	302 	301
f 67 	70 	264
f 67 	264 	263
f 316 	302 	358
f 354 	358 	302
f 55 	289 	58
f 70 	265 	264
f 330 	316 	359
f 358 	359 	316
f 334 	330 	360
f 359 	360 	330
f 371 	103 	319
f 342 	334 	361
f 360 	361 	334
f 319 	103 	320
f 105 	320 	103
f 345 	342 	362
f 361 	362 	342
f 118 	148 	158
f 148 	149 	158
f 115 	63 	321
f 73 	70 	118
f 63 	61 	321
f 30 	304 	36
f 312 	315 	61
f 320 	105 	322
f 107 	322 	105
f 362 	363 	292
f 362 	292 	345
f 363 	364 	293
f 363 	293 	292
f 323 	322 	107
f 364 	365 	294
f 364 	294 	293
f 304 	30 	298
f 307 	39 	304
f 310 	56 	307
f 312 	59 	310
f 296 	298 	30
f 291 	296 	65
f 31 	65 	296
f 124 	294 	13
f 365 	13 	294
f 64 	377 	355
f 58 	289 	65
f 377 	378 	356
f 377 	356 	355
f 378 	379 	357
f 378 	357 	356
f 145 	380 	144
f 169 	137 	64
f 379 	380 	17
f 379 	17 	357
f 147 	381 	145
f 377 	142 	378
f 27 	17 	381
f 380 	381 	17
f 156 	382 	147
f 378 	143 	379
f 34 	27 	382
f 381 	382 	27
f 157 	383 	156
f 379 	144 	380
f 90 	34 	383
f 382 	383 	34
f 140 	278 	276
f 380 	145 	381
f 93 	90 	384
f 383 	384 	90
f 381 	147 	382
f 73 	158 	368
f 73 	368 	265
f 221 	93 	215
f 384 	215 	93
f 382 	156 	383
f 215 	384 	160
f 337 	368 	154
f 158 	154 	368
f 383 	157 	384
f 337 	154 	338
f 157 	160 	384
f 338 	168 	339
f 168 	340 	339
f 216 	164 	223
f 164 	166 	223
f 340 	176 	341
f 176 	181 	343
f 176 	343 	341
f 181 	366 	343
f 178 	12 	175
f 180 	19 	178
f 183 	26 	180
f 127 	175 	13
f 189 	372 	367
f 142 	377 	137
f 377 	64 	137
f 64 	62 	169
f 287 	169 	62
f 287 	62 	60
f 57 	285 	60
f 54 	283 	57
f 283 	54 	37
f 285 	57 	283
f 287 	60 	285
f 370 	222 	371
f 251 	369 	374
f 370 	369 	251
f 238 	278 	375
f 278 	140 	375
f 375 	376 	239
f 375 	239 	238
f 376 	1 	239
# 764 faces

 #end of obj_0

