<?xml version="1.0" encoding="UTF-8" standalone="no"?>
<svg
   width="80"
   height="60"
   version="1.1"
   id="svg3"
   xmlns="http://www.w3.org/2000/svg"
   xmlns:svg="http://www.w3.org/2000/svg">
  <defs
     id="defs3" />
  <path
     d="m 18.153996,18.546 0.014,1.344 q -1.022,0.014 -1.666,-0.294 -0.644,-0.294 -1.022,-0.98 -0.378,-0.672 -0.588,-1.82 -0.126,-0.658 -0.196,-1.428 -0.056,-0.784 -0.056,-1.638 0,-0.798 0.056,-1.638 0.07,-0.84 0.196,-1.554 0.21,-1.26 0.63,-1.904 0.42,-0.658 1.064,-0.896 0.658,-0.238 1.582,-0.252 l -0.014,1.358 q -0.602,0.028 -0.994,0.224 -0.392,0.182 -0.63,0.63 -0.224,0.434 -0.35,1.218 -0.098,0.602 -0.154,1.33 -0.042,0.714 -0.042,1.4 0,0.714 0.042,1.442 0.056,0.714 0.154,1.302 0.126,0.742 0.336,1.19 0.224,0.448 0.616,0.672 0.392,0.224 1.022,0.294 z m 7.881996,0 0.014,1.344 q -1.022,0.014 -1.666,-0.294 -0.644,-0.294 -1.022,-0.98 -0.378,-0.672 -0.588,-1.82 -0.126,-0.658 -0.196,-1.428 -0.056,-0.784 -0.056,-1.638 0,-0.798 0.056,-1.638 0.07,-0.84 0.196,-1.554 0.21,-1.26 0.63,-1.904 0.42,-0.658 1.064,-0.896 0.658,-0.238 1.582,-0.252 l -0.014,1.358 q -0.602,0.028 -0.994,0.224 -0.392,0.182 -0.63,0.63 -0.224,0.434 -0.35,1.218 -0.098,0.602 -0.154,1.33 -0.042,0.714 -0.042,1.4 0,0.714 0.042,1.442 0.056,0.714 0.154,1.302 0.126,0.742 0.336,1.19 0.224,0.448 0.616,0.672 0.392,0.224 1.022,0.294 z"
     id="text1"
     style="fill:#e8e8e8"
     aria-label=" ((" />
  <path
     d="M 7.29,37.204 V 24.996 h 1.302 v 12.208 z m 5.515996,-7.406 0.336,-1.12 h 1.442 V 27.11 l 1.302,-0.56 v 2.128 h 2.338 v 1.12 h -2.352 v 3.892 q 0,0.504 0.098,0.77 0.098,0.252 0.364,0.35 0.266,0.084 0.784,0.084 0.294,0 0.56,-0.028 0.28,-0.028 0.854,-0.112 v 1.218 q -0.518,0.07 -0.826,0.098 -0.308,0.042 -0.532,0.056 -0.21,0.014 -0.448,0.014 -0.896,0 -1.358,-0.182 -0.462,-0.182 -0.63,-0.7 -0.168,-0.518 -0.168,-1.526 V 29.798 Z M 20.939992,36 V 25.724 h 1.344 v 4.032 h 0.056 q 0.182,-0.504 0.378,-0.756 0.21,-0.266 0.56,-0.35 0.35,-0.098 0.966,-0.098 0.938,0 1.428,0.224 0.49,0.21 0.658,0.826 0.182,0.602 0.182,1.778 V 36 h -1.344 v -4.62 q 0,-0.672 -0.112,-1.022 -0.098,-0.35 -0.378,-0.462 -0.28,-0.126 -0.812,-0.126 -0.658,0 -1.008,0.196 -0.336,0.182 -0.462,0.728 -0.112,0.532 -0.112,1.568 V 36 Z m 9.995996,1.204 V 24.996 h 1.302 v 12.208 z m 9.687997,0 h -2.212 q -0.77,0 -1.218,-0.07 -0.448,-0.07 -0.672,-0.294 -0.21,-0.224 -0.28,-0.7 -0.07,-0.462 -0.07,-1.26 v -5.992 q 0,-0.868 0.07,-1.386 0.07,-0.518 0.294,-0.77 0.224,-0.252 0.672,-0.322 0.462,-0.07 1.232,-0.07 h 2.562 q 0.588,0 0.938,0.084 0.35,0.07 0.518,0.322 0.182,0.238 0.224,0.756 0.056,0.518 0.056,1.4 v 0.63 l -0.014,4.97 h -0.658 q -0.154,0 -0.224,-0.07 -0.056,-0.084 -0.168,-0.434 h -0.098 q -0.14,0.252 -0.252,0.364 -0.112,0.112 -0.294,0.14 -0.168,0.028 -0.504,0.028 -0.7,0 -1.12,-0.07 -0.42,-0.084 -0.63,-0.336 -0.196,-0.266 -0.252,-0.798 -0.056,-0.532 -0.056,-1.428 0,-0.896 0.056,-1.414 0.056,-0.532 0.238,-0.784 0.196,-0.266 0.574,-0.336 0.392,-0.084 1.064,-0.084 0.28,0 0.434,0.042 0.154,0.028 0.294,0.14 0.154,0.112 0.378,0.364 h 0.098 v -0.924 q 0,-0.63 -0.042,-0.924 -0.028,-0.308 -0.154,-0.392 -0.126,-0.084 -0.406,-0.084 h -2.576 q -0.476,0 -0.7,0.084 -0.21,0.084 -0.28,0.378 -0.056,0.28 -0.056,0.896 v 5.992 q 0,0.532 0.056,0.784 0.07,0.252 0.28,0.336 0.21,0.07 0.658,0.07 h 2.24 z m 0.028,-3.808 q 0.406,0 0.588,-0.084 0.196,-0.098 0.252,-0.406 0.056,-0.308 0.056,-0.966 0,-0.7 -0.056,-1.022 -0.056,-0.322 -0.252,-0.406 -0.182,-0.098 -0.588,-0.098 -0.476,0 -0.7,0.098 -0.21,0.084 -0.28,0.406 -0.056,0.308 -0.056,0.994 0,0.672 0.056,0.994 0.07,0.308 0.28,0.406 0.224,0.084 0.7,0.084 z"
     id="text2"
     style="fill:#e8e8e8"
     aria-label="|th|@" />
  <path
     d="M 8.088,45.544 6.548,43.5 h 1.484 l 1.302,2.044 z m 5.361996,4.844 v -1.372 h 4.746 v 1.372 z m 7.881996,0 v -1.372 h 4.746 v 1.372 z m 10.401996,-4.844 -1.54,-2.044 h 1.484 l 1.302,2.044 z"
     id="text3"
     style="fill:#e8e8e8"
     aria-label="`--`" />
</svg>
